<?xml version="1.0" encoding="UTF-8" standalone="no"?>
<!-- Created with Inkscape (http://www.inkscape.org/) -->

<svg
   xmlns:dc="http://purl.org/dc/elements/1.1/"
   xmlns:cc="http://creativecommons.org/ns#"
   xmlns:rdf="http://www.w3.org/1999/02/22-rdf-syntax-ns#"
   xmlns:svg="http://www.w3.org/2000/svg"
   xmlns="http://www.w3.org/2000/svg"
   xmlns:sodipodi="http://sodipodi.sourceforge.net/DTD/sodipodi-0.dtd"
   xmlns:inkscape="http://www.inkscape.org/namespaces/inkscape"
   width="2056"
   height="2056"
   viewBox="0 0 2056 2056"
   version="1.1"
   id="svg8094"
   inkscape:version="0.91+devel+osxmenu r12922"
   sodipodi:docname="FYAAAAR.svg">
  <defs
     id="defs8088">
    <inkscape:path-effect
       effect="spiro"
       id="path-effect4185"
       is_visible="true" />
    <inkscape:path-effect
       effect="spiro"
       id="path-effect4158"
       is_visible="true" />
    <inkscape:path-effect
       effect="spiro"
       id="path-effect4154"
       is_visible="true" />
    <inkscape:path-effect
       effect="spiro"
       id="path-effect4150"
       is_visible="true" />
    <inkscape:path-effect
       effect="spiro"
       id="path-effect4146"
       is_visible="true" />
    <inkscape:path-effect
       effect="spiro"
       id="path-effect4142"
       is_visible="true" />
  </defs>
  <sodipodi:namedview
     id="base"
     pagecolor="#ffffff"
     bordercolor="#666666"
     borderopacity="1.0"
     inkscape:pageopacity="0.0"
     inkscape:pageshadow="2"
     inkscape:zoom="0.3365289"
     inkscape:cx="480.41537"
     inkscape:cy="1438.3967"
     inkscape:document-units="px"
     inkscape:current-layer="layer1"
     showgrid="false"
     units="px"
     borderlayer="true"
     inkscape:showpageshadow="false"
     inkscape:window-width="1436"
     inkscape:window-height="855"
     inkscape:window-x="4"
     inkscape:window-y="23"
     inkscape:window-maximized="0" />
  <metadata
     id="metadata8091">
    <rdf:RDF>
      <cc:Work
         rdf:about="">
        <dc:format>image/svg+xml</dc:format>
        <dc:type
           rdf:resource="http://purl.org/dc/dcmitype/StillImage" />
        <dc:title></dc:title>
      </cc:Work>
    </rdf:RDF>
  </metadata>
  <g
     inkscape:label="Layer 1"
     inkscape:groupmode="layer"
     id="layer1"
     transform="translate(0,933.48035)">
    <path
       style="opacity:1;fill:#66f4ff;fill-opacity:1;stroke:none;stroke-width:0.25;stroke-linecap:round;stroke-linejoin:round;stroke-miterlimit:4;stroke-dasharray:none;stroke-dashoffset:1.79999995;stroke-opacity:1;paint-order:normal"
       inkscape:transform-center-x="3.0546135"
       inkscape:transform-center-y="-3.0546135"
       d="m 7478.8361,215.61133 c 28.5755,32.14741 -522.0446,426.10948 -854.6261,389.8924 -332.5815,-36.21708 -811.7128,-186.82268 -895.7616,-358.3605 -33.3855,-38.79892 252.8694,-98.33147 252.8694,-98.33147 -223.7693,-137.647396 -223.719,-385.08811 -223.719,-385.08811 26.8801,-56.35282 251.6715,14.1078 251.6715,14.1078 0,0 -241.2579,-263.27586 -195.7607,-286.98107 62.9364,-32.79148 211.4523,34.35371 211.4523,34.35371 0,0 -108.6944,-257.05556 -82.0596,-299.01439 26.7122,-42.08084 198.0841,98.41977 198.0841,98.41977 0,0 8.9535,-285.42569 51.713,-310.35779 42.8838,-25.00458 174.5567,174.21883 174.5567,174.21883 0,0 62.1392,-281.30481 112.6139,-290.55371 50.6215,-9.2758 183.5492,263.63231 183.5492,263.63231 0,0 18.9526,-241.74951 69.6154,-242.04671 50.8101,-0.2981 61.5766,210.64918 61.5766,210.64918 0,0 154.1358,-231.43838 202.649,-214.07428 48.6543,17.4145 -15.8198,290.70688 -15.8198,290.70688 0,0 252.8733,-167.9673 293.5306,-137.4734 40.7754,30.5825 -234.9546,322.69304 -234.9546,322.69304 0,0 235.8547,-167.3767 276.6169,-125.59382 34.7246,35.59422 -131.1892,274.40045 -131.1892,274.40045 0,0 198.0127,-76.76895 227.5843,-7.78167 19.5971,45.71786 -211.1071,250.02974 -211.1071,250.02974 0,0 294.7599,41.66212 293.1844,91.31666 l -233.5082,269.33415 c 0,0 173.5218,5.52778 217.2386,71.902 z"
       id="path4187"
       inkscape:connector-curvature="0"
       sodipodi:nodetypes="czccccscscscscscscscscscccc" />
    <path
       style="fill:none;fill-rule:evenodd;stroke:#000000;stroke-width:1px;stroke-linecap:butt;stroke-linejoin:miter;stroke-opacity:1"
       d="m 1001.2188,95.79675 c -30.32467,23.68914 -64.37554,42.35973 -94.1162,66.77804 -14.87034,12.20915 -28.66632,25.89303 -39.67724,41.67117 -11.01091,15.77815 -19.1883,33.73602 -22.265,52.72876 -4.1002,25.31086 1.15877,51.88796 13.81801,74.18582 12.65925,22.29787 32.52468,40.27721 55.58845,51.48049 23.06377,11.20329 49.2073,15.70396 74.77531,13.77321 25.56797,-1.93074 50.53047,-10.20071 72.67647,-23.12377 44.2921,-25.8461 76.3664,-69.65459 94.4774,-117.63164 18.1109,-47.97706 23.1507,-100.03302 22.0296,-151.30238 -1.7027,-77.864153 -17.349,-155.403014 -45.9741,-227.83457 -14.8861,85.871987 -62.652,165.622657 -131.3327,219.27487 z"
       id="path4144"
       inkscape:path-effect="#path-effect4146"
       inkscape:original-d="m 1001.2188,95.79675 c 0.1467,-2.62035 -120.13339,89.3263 -156.05844,161.17797 -35.92505,71.85167 250.97894,-153.04621 333.36524,-152.61827 82.3863,0.42792 -25.191,-190.11514 -45.9741,-227.83457 -41.9074,-47.22845 -135.97754,266.62363 -131.3327,219.27487 z"
       inkscape:connector-curvature="0"
       sodipodi:nodetypes="csscc" />
    <path
       style="fill:none;fill-rule:evenodd;stroke:#000000;stroke-width:1px;stroke-linecap:butt;stroke-linejoin:miter;stroke-opacity:1"
       d="m 1031.2802,409.55655 c -42.72327,13.45756 -89.40431,13.05975 -132.48082,0.77976 -43.0765,-12.27999 -82.5256,-36.19297 -114.77465,-67.27966 -64.4981,-62.17338 -98.70362,-150.98472 -108.14936,-240.0707 -5.75145,-54.243831 -2.99458,-109.3812605 8.13903,-162.78084 3.17475,23.179445 13.20972,45.376366 28.51416,63.0721228 15.30444,17.6957572 35.82272,30.8260232 58.3023,37.3093972 25.21589,7.272557 52.41471,6.168647 77.76376,-0.625222 25.34905,-6.793869 48.9678,-19.091355 70.69461,-33.811308 69.83377,-47.312516 121.17047,-121.20895 141.13967,-203.16297 19.9691,-81.95403 8.3801,-171.18313 -31.8617,-245.31699 111.1945,133.89211 178.8301,303.38782 190.3621,477.04932 4.9981,75.26683 -0.6528,152.75928 -30.2012,222.1637 -14.7741,34.70221 -35.4854,67.04861 -62.1383,93.7346 -26.6529,26.68599 -59.3358,47.60726 -95.3096,58.93879 z"
       id="path4148"
       inkscape:path-effect="#path-effect4150"
       inkscape:original-d="M 1031.2802,409.55655 C 938.12339,610.32955 756.37145,203.35747 675.87537,102.98595 595.37929,2.61443 671.36367,26.10722 684.0144,-59.79489 c 2.44558,37.36454 88.89332,76.96742 86.81646,100.38152 -5.09737,57.46681 97.36463,85.56629 148.45837,-34.43653 44.29775,-104.0412 93.48237,-417.53122 109.27797,-448.47996 214.5355,-1.12828 217.5112,337.84258 190.3621,477.04932 -25.7047,131.80016 -148.2932,292.37182 -187.6491,374.83709 z"
       inkscape:connector-curvature="0"
       sodipodi:nodetypes="cscsscsc" />
    <path
       style="fill:none;fill-rule:evenodd;stroke:#000000;stroke-width:1px;stroke-linecap:butt;stroke-linejoin:miter;stroke-opacity:1"
       d="m 711.14455,-278.85381 c -61.14419,59.42313 -104.12075,137.29582 -121.80308,220.70479 -13.63867,64.3346967 -12.32591,131.996619 5.4906,195.30174 17.81651,63.30512 52.27809,122.07753 100.0344,167.29148 46.90688,44.40974 105.89712,75.2138 168.20686,92.24251 128.29017,35.06059 271.66837,10.08678 380.54917,-66.28459 108.8807,-76.37136 181.181,-202.67914 191.8968,-335.24152 -4.1263,14.0459124 -13.4654,26.495312 -25.7958,34.386765 -12.3304,7.891452 -27.5468,11.157588 -42.0296,9.021465 -15.1854,-2.239763 -29.2705,-10.291674 -39.6979,-21.555966 -10.4274,-11.2642928 -17.2837,-25.6025382 -20.5618,-40.598147 -6.5563,-29.991216 0.9769,-61.461271 13.2219,-89.612947 12.2451,-28.15169 29.0915,-54.05727 42.504,-81.67178 13.4126,-27.61451 23.4958,-57.9805 20.7481,-88.55677 -2.4294,-27.0346 -15.2367,-53.00601 -35.2054,-71.39143 0.7433,22.95749 -9.8715,46.01039 -27.7981,60.3712 -17.9267,14.36081 -42.7404,19.68915 -64.9824,13.95391 -21.3319,-5.50057 -39.3028,-20.33492 -52.7131,-37.81263 -13.4103,-17.47772 -22.8091,-37.63048 -32.2356,-57.54148 -45.1441,-95.35461 -94.1686,-190.41759 -164.4149,-269.13197 -31.76329,-35.59232 -67.63138,-67.51847 -106.66518,-94.94259 -8.08705,36.3139 -10.46687,73.89282 -7.02548,110.9368 9.67375,104.13053 64.42348,200.47174 71.05411,304.84024 3.31532,52.18425 -6.52514,106.87276 -37.34392,149.1148 -15.40939,21.12102 -35.9085,38.71816 -59.73992,49.47039 -23.83141,10.75223 -51.01146,14.46096 -76.6033,9.11265 -33.98545,-7.10245 -64.15169,-30.6025 -79.35305,-61.81747 -15.20137,-31.21497 -15.10154,-69.45427 0.26259,-100.58945 z"
       id="path4152"
       inkscape:path-effect="#path-effect4154"
       inkscape:original-d="m 711.14455,-278.85381 c -22.54996,-4.88077 -115.17588,162.6246 -121.80308,220.70479 -16.16773,141.69243 61.13058,296.51555 105.525,362.59322 75.95439,113.05225 104.35733,95.76019 168.20686,92.24251 C 1095.7959,383.86525 1435.7606,28.44398 1435.5193,-4.8394 c -29.1035,-179.40378 -41.6025,57.91109 -67.8254,43.40823 -38.7812,-21.44838 24.707,-267.34098 16.2143,-321.99561 -9.8086,-63.12253 60.7505,-98.24628 -35.2054,-71.39143 -21.0803,-21.0417 -53.293,77.64278 -92.7805,74.32511 -42.4191,-3.56398 164.0458,177.47943 -84.9487,-95.35411 -38.1199,-41.96822 -100.7244,-178.55669 -164.4149,-269.13197 -44.49976,-63.28396 -98.65519,-94.9803 -106.66518,-94.94259 -0.78078,-12.18477 -12.4116,29.32729 -7.02548,110.9368 9.73421,147.49102 8.24932,497.12515 -102.63303,512.53808 -59.64038,8.29016 107.13991,31.40066 -79.09046,-162.40692 z"
       inkscape:connector-curvature="0"
       sodipodi:nodetypes="cssacsscacscssc" />
    <path
       style="fill:none;fill-rule:evenodd;stroke:#000000;stroke-width:1px;stroke-linecap:butt;stroke-linejoin:miter;stroke-opacity:1"
       d="m 437.64212,75.090158 c -1.21667,8.78619 0.2959,17.930915 4.2769,25.857392 3.98101,7.92647 10.4132,14.60036 18.18751,18.8709 7.77431,4.27055 16.85705,6.11925 25.68212,5.22735 8.82508,-0.8919 17.35425,-4.52054 24.11688,-10.26025 5.63158,-4.77974 10.01565,-10.96509 12.94113,-17.747581 2.92549,-6.782487 4.411,-14.151074 4.64834,-21.533775 0.47468,-14.7654 -3.99635,-29.349129 -10.60546,-42.561322 -14.37743,-28.7417404 -38.36658,-51.370831 -56.73178,-77.743499 -26.15835,-37.563749 -40.66275,-83.124433 -41.03488,-128.897313 -0.37214,-45.77288 13.38956,-91.56337 38.93371,-129.54746 -0.35157,18.4124 7.32299,36.83874 20.64081,49.55785 13.31782,12.7191 32.07744,19.53859 50.45422,18.34107 12.43649,-0.81042 24.55361,-5.15379 34.9896,-11.9665 10.436,-6.81271 19.20942,-16.04761 25.96227,-26.52244 13.5057,-20.94966 18.75843,-46.36385 19.09011,-71.28738 0.66338,-49.84706 -17.18309,-98.57576 -16.38348,-148.42082 1.04697,-65.26446 36.47331,-129.00959 91.34392,-164.36157 -11.48004,30.39443 -16.18198,63.32773 -13.66618,95.72037 1.11896,14.40741 3.66823,28.7801 8.69415,42.32874 5.02591,13.54865 12.5967,26.2775 22.94436,36.36468 10.34766,10.08719 23.55902,17.43732 37.81471,19.80389 14.25569,2.36657 29.51163,-0.47697 41.36568,-8.74177 10.33846,-7.20811 17.72748,-18.19986 21.75479,-30.14228 4.02731,-11.94241 4.84177,-24.80328 3.68686,-37.35345 -2.30981,-25.10033 -12.21499,-48.77336 -18.85974,-73.08816 -21.82349,-79.85766 -6.76362,-169.01078 40.07984,-237.26913 46.84346,-68.25834 124.61463,-114.37475 206.97759,-122.73267 -22.4059,11.5939 -42.56074,27.51879 -59.02267,46.63551 -9.77567,11.35218 -18.29129,23.88154 -24.33878,37.58788 -6.04749,13.70633 -9.58402,28.62675 -9.33655,43.60588 0.24746,14.97914 4.37906,30.00748 12.65441,42.49564 8.27536,12.48817 20.79356,22.29792 35.1904,26.44121 12.92909,3.7209 27.15139,2.76393 39.46549,-2.65551 12.3141,-5.41943 22.6266,-15.26019 28.6163,-27.30725 5.9896,-12.04705 7.611,-26.20895 4.4991,-39.29802 -3.1119,-13.08907 -10.9334,-25.00595 -21.704,-33.0683 19.5234,-1.14596 39.3562,3.64794 56.2008,13.58465 14.7835,8.72089 27.1515,21.24134 36.6928,35.50919 9.5412,14.26785 16.3241,30.26074 21.1107,46.74392 9.5733,32.96637 11.2313,67.61153 14.4473,101.7888 2.4353,25.87978 5.8249,51.81162 13.307,76.70563 7.4821,24.89401 19.2386,48.84629 36.8319,67.98186 17.5932,19.13558 41.3627,33.18679 67.1617,36.36527 12.8995,1.58925 26.1719,0.44851 38.4894,-3.6991 12.3175,-4.14762 23.6511,-11.3312 32.3695,-20.97036 10.2843,-11.37045 16.784,-26.10737 18.2457,-41.36899 1.4617,-15.26162 -2.1225,-30.96435 -10.0616,-44.08018 30.1746,14.99515 54.1382,42.05817 65.3708,73.82594 11.8274,33.44991 9.6457,70.22144 3.7674,105.21043 -5.8784,34.98898 -15.3064,69.49416 -17.5905,104.8999 -1.142,17.70287 -0.4689,35.60982 3.311,52.94212 3.7798,17.3323 10.7392,34.10273 21.4177,48.26837 10.6785,14.16565 25.1816,25.64068 41.8967,31.58226 16.7151,5.94159 35.641,6.11185 52.0224,-0.69598 10.6402,-4.4219 20.0754,-11.70533 27.0475,-20.87911 6.972,-9.17377 11.4633,-20.21461 12.8748,-31.65031 19.9384,28.63362 27.1975,65.77009 19.5087,99.80399 -4.9439,21.8837 -15.6418,42.0661 -27.926,60.8394 -12.2842,18.7733 -26.241,36.405779 -38.5958,55.132665 -12.3548,18.726886 -23.1989,38.8143902 -28.3898,60.64081 -5.1908,21.826421 -4.3346,45.658731 5.8197,65.664445 10.4345,20.55791 30.6342,35.88239 53.2431,40.39295 22.6089,4.51057 47.1426,-1.88943 64.6671,-16.86941 -32.1854,47.21265 -71.1758,89.77848 -115.3907,125.972 -79.6043,65.16263 -175.3384,108.98178 -274.8426,135.09578 -99.5041,26.114 -202.8977,34.99274 -305.77146,35.02039 -84.13621,0.0226 -169.36638,-6.01884 -249.13915,-32.76221 C 599.29312,355.67381 524.78751,306.42985 480.52032,234.88044 451.08889,187.31019 435.9797,131.00414 437.64212,75.090158 Z"
       id="path4156"
       inkscape:path-effect="#path-effect4158"
       inkscape:original-d="m 437.64212,75.090158 c 46.76149,13.88318 58.80362,18.55704 72.26341,39.695392 17.78539,27.93162 3.22214,-110.143059 6.98401,-81.842678 12.56557,94.530228 20.05426,-141.788702 -56.73178,-77.743499 -61.57989,51.36215 -4.19235,-124.679843 -2.10117,-258.444773 32.84962,58.28349 39.63172,77.05987 71.09503,67.89892 85.10876,-24.78052 26.3382,-148.43978 63.6585,-258.19714 22.43492,-69.3252 71.67612,-131.71703 91.34392,-164.36157 -7.37634,122.4358 -38.93041,168.67212 -13.66618,95.72037 20.11211,-58.07472 57.23159,141.83862 110.8189,89.75554 16.53465,-16.0705 -6.09668,-89.10745 6.58191,-140.58389 20.31956,-82.49959 227.98373,-331.84925 247.05743,-360.0018 0,0 -159.59862,117.84541 -59.02267,46.63551 669.24207,-473.83744 -35.17268,143.66435 14.16948,150.13061 56.64189,7.42289 50.87689,-102.32908 50.87689,-102.32908 -14.3793,59.45252 11.4385,-33.01293 56.2008,13.58465 29.527,30.73767 41.4416,164.23169 72.2508,184.04191 62.7441,40.34424 138.3687,140.67232 188.1595,156.3833 55.1327,17.39655 20.7023,-43.86756 8.1841,-85.44917 25.5235,-5.8597 53.1264,-6.45458 65.3708,73.82594 12.6148,82.70912 89.5469,276.80582 104.8247,342.2071 30.1069,128.882167 28.0256,53.21982 39.9223,-52.52942 14.0081,0.53253 89.0655,34.07513 19.5087,99.80399 -132.7975,125.489125 -99.9381,176.872974 -89.0919,242.27732 19.7798,119.27526 78.9651,178.4355 117.9102,23.52354 -26.0726,52.40406 -65.7454,85.01582 -115.3907,125.972 C 1367.9494,361.27711 1146.7855,439.90787 928.20504,415.1794 783.16716,396.613 589.60676,285.61447 480.52032,234.88044 190.44738,94.772957 587.96177,130.08187 437.64212,75.090158 Z"
       inkscape:connector-curvature="0"
       sodipodi:nodetypes="cssscaccssscsssssscsscsscsccc" />
    <path
       style="fill:none;fill-rule:evenodd;stroke:#000000;stroke-width:1px;stroke-linecap:butt;stroke-linejoin:miter;stroke-opacity:1"
       d="m -1054.8871,40.888965 c -189.0671,3.635746 -377.8781,20.52934 -564.5875,50.51567 18.429,-33.602957 27.995,-72.016073 27.4771,-110.337346 -0.5178,-38.321274 -11.1183,-76.461872 -30.4486,-109.554569 -24.1302,-41.30981 -61.9145,-74.48904 -105.9964,-93.07783 -44.082,-18.58879 -94.2153,-22.48325 -140.6392,-10.92514 27.73,5.71089 57.2976,2.08959 82.8297,-10.14456 25.5321,-12.23415 46.8799,-33.00985 59.803,-58.20031 19.8471,-38.68719 18.6244,-87.41243 -3.138,-125.05551 -21.7624,-37.64308 -63.3779,-63.01622 -106.808,-65.12129 27.604,-0.26118 55.0941,-8.25637 78.5325,-22.84025 23.4384,-14.58389 42.756,-35.71352 55.1856,-60.36211 18.6896,-37.06249 21.1926,-81.94376 6.74,-120.85456 -14.4526,-38.9108 -45.6471,-71.27585 -83.9994,-87.15135 11.7537,23.32869 31.0268,42.79476 54.2372,54.78033 23.2104,11.98557 50.2405,16.42987 76.0667,12.50692 25.8261,-3.92295 50.3173,-16.19328 68.9217,-34.53047 18.6044,-18.33719 31.2278,-42.64829 35.524,-68.41494 4.654,-27.91239 -0.5423,-57.36736 -14.4665,-82.00229 -13.9241,-24.63494 -36.4791,-44.27845 -62.7929,-54.6873 26.3032,15.39391 59.4421,18.55511 88.1814,8.41184 28.7393,-10.14328 52.5524,-33.40521 63.3658,-61.8991 8.6919,-22.9037 9.0434,-48.8712 0.9746,-72.0018 -8.0688,-23.1306 -24.4954,-43.2452 -45.5473,-55.7732 30.95,-3.8626 60.7257,-16.7087 84.7721,-36.5731 24.0463,-19.8644 42.2821,-46.68 51.9175,-76.3444 16.0867,-49.5259 6.9642,-106.5415 -23.7721,-148.5758 19.0079,27.5445 48.0484,48.0011 80.3848,56.6241 32.3364,8.6231 67.7068,5.3428 97.9059,-9.0798 36.7868,-17.5688 65.261,-51.7097 75.9399,-91.053 10.6789,-39.3432 3.3743,-83.1955 -19.4811,-116.9529 16.1403,28.8545 40.1387,53.2628 68.7157,69.8895 28.577,16.6266 61.6564,25.4271 94.7175,25.1989 41.83305,-0.2888 83.42299,-15.2185 115.889,-41.6012 -24.14544,28.3415 -34.38322,68.0033 -26.97177,104.4904 7.41146,36.4871 32.31206,69.0115 65.60147,85.6865 24.31505,12.1796 52.72477,15.9947 79.3916,10.6614 26.66684,-5.3334 51.42384,-19.7819 69.184,-40.3766 -15.66674,29.4132 -20.8498,64.276 -14.41726,96.9747 6.43254,32.6987 24.43487,63.0004 50.07546,84.2876 31.16276,25.8717 73.41095,37.9036 113.5285,32.3317 40.11756,-5.5719 77.48773,-28.6618 100.4204,-62.0468 -41.47399,34.4151 -65.60191,88.7635 -63.31064,142.6081 2.29126,53.84457 30.94902,105.94683 75.19674,136.71414 43.44613,30.20993 100.93777,39.22822 151.5472,23.7721 -45.69824,12.33012 -85.34516,45.4528 -105.60756,88.22892 -20.2624,42.77612 -20.77561,94.43584 -1.36704,137.60607 16.95463,37.71197 48.70556,68.53221 86.90511,84.35773 38.19954,15.82552 82.44396,16.48906 121.10089,1.81615 -38.6185,1.28971 -76.27243,20.49096 -99.99513,50.99155 -23.72269,30.50059 -33.06451,71.72239 -24.80847,109.4701 6.33336,28.95697 22.72946,55.61196 45.71826,74.32378 22.9888,18.71183 52.41712,29.35581 82.05684,29.67927 -102.81112,10.67743 -200.461,64.43969 -264.4647,145.60409 -51.72363,65.59179 -81.40129,148.265335 -83.2023,231.778045 -173.57352,-19.183475 -348.38819,-27.129588 -522.9863,-23.77208 z"
       id="path4183"
       inkscape:path-effect="#path-effect4185"
       inkscape:original-d="m -1054.8871,40.888965 c -103.0225,-24.7527 -407.0873,-99.06044 -564.5875,50.51567 38.6197,-70.31576 -234.0175,-82.8373602 -2.9715,-219.891915 3699.8932,-2194.74532 -167.4177,-74.29323 -246.6356,-104.00297 161.4422,-47.53427 76.2789,-28.73467 142.6327,-68.34487 66.3538,-39.6101 -57.4393,-154.52864 -109.946,-190.1768 131.7271,26.75362 76.2788,-67.36429 133.7181,-83.20236 57.4392,-15.83807 -42.5817,-153.53817 -77.2594,-208.00591 36.6387,100.05094 200.0919,-27.74412 234.7496,-35.65816 34.6576,-7.91403 -59.4203,-51.51622 -77.2594,-136.68959 107.4181,71.8775 99.0605,-72.31686 151.5472,-53.48726 52.4867,18.82961 -45.5532,-11.896 -44.5727,-127.775 0,0 93.1174,-121.8421 136.6896,-112.9175 43.5722,8.9245 -52.4868,-58.4498 -23.7721,-148.5758 13.857,135.7092 153.5381,37.6293 178.2907,47.5443 24.7527,9.915 37.6492,-179.2913 56.4588,-208.0059 44.5727,23.7721 148.5856,87.1544 163.4332,95.0884 14.8476,7.934 77.2693,-20.8106 115.889,-41.6012 9.7741,127.1571 -13.8571,121.822 38.6297,190.1769 52.4867,68.3548 91.1364,-33.6872 148.5756,-29.7152 -25.7631,125.8041 14.8676,129.7461 35.6582,181.2623 20.7906,51.5163 155.5191,-28.7346 213.9489,-29.7151 7.914,70.3358 26.7536,191.1574 11.8861,279.32224 -14.8676,88.16488 69.3453,-13.87706 151.5472,23.7721 -116.8896,58.44976 -60.4108,166.39473 -106.9746,225.83499 -46.5637,59.44026 113.9181,12.86656 208.006,86.17388 -131.7471,22.7916 -66.3538,71.30635 -124.8036,160.46165 -58.4497,89.1554 141.6522,50.50575 127.7751,104.00305 0,0 -126.7746,164.41369 -264.4647,145.60409 -137.6901,-18.8096 -58.4297,188.185845 -83.2023,231.778045 0,0 -419.9639,0.98052 -522.9863,-23.77208 z"
       inkscape:connector-curvature="0"
       sodipodi:nodetypes="scscccscscscscscscscscscscscscs" />
  </g>
</svg>
