<?xml version="1.0" encoding="UTF-8" standalone="no"?>
<svg
   xmlns:dc="http://purl.org/dc/elements/1.1/"
   xmlns:cc="http://creativecommons.org/ns#"
   xmlns:rdf="http://www.w3.org/1999/02/22-rdf-syntax-ns#"
   xmlns:svg="http://www.w3.org/2000/svg"
   xmlns="http://www.w3.org/2000/svg"
   id="svg8094"
   version="1.1"
   viewBox="0 0 96 96"
   height="96"
   width="96">
  <defs
     id="defs8088" />
  <metadata
     id="metadata8091">
    <rdf:RDF>
      <cc:Work
         rdf:about="">
        <dc:format>image/svg+xml</dc:format>
        <dc:type
           rdf:resource="http://purl.org/dc/dcmitype/StillImage" />
        <dc:title></dc:title>
      </cc:Work>
    </rdf:RDF>
  </metadata>
  <g
     transform="translate(0,-1026.5197)"
     id="layer1">
    <g
       style="stroke-width:0.9850955"
       transform="matrix(1.01513,0,0,1.01513,-0.93576184,-17.127436)"
       id="g3421">
      <g
         id="g3363"
         transform="matrix(1.1003128,0,0,1.1003083,-2.1834003,-103.8064)"
         style="stroke-width:0.89528865">
        <rect
           ry="1.790581"
           rx="1.7905736"
           y="1041.4753"
           x="15.667657"
           height="45.509003"
           width="45.347626"
           id="rect3335"
           style="opacity:1;fill:#bfbfbf;fill-opacity:1;stroke:none;stroke-width:1.79057729;stroke-linecap:round;stroke-linejoin:round;stroke-miterlimit:4;stroke-dasharray:none;stroke-dashoffset:1.79999995;stroke-opacity:1;paint-order:normal" />
        <rect
           style="opacity:1;fill:#808080;fill-opacity:1;stroke:none;stroke-width:1.79057729;stroke-linecap:round;stroke-linejoin:round;stroke-miterlimit:4;stroke-dasharray:none;stroke-dashoffset:1.79999995;stroke-opacity:1;paint-order:normal"
           id="rect3357"
           width="45.347626"
           height="45.509003"
           x="22.667658"
           y="1048.4753"
           rx="1.7905736"
           ry="1.790581" />
        <rect
           ry="1.790581"
           rx="1.7905736"
           y="1055.4753"
           x="29.667656"
           height="45.509003"
           width="45.347626"
           id="rect3359"
           style="opacity:1;fill:#ffffff;fill-opacity:1;stroke:#404040;stroke-width:1.79057729;stroke-linecap:round;stroke-linejoin:round;stroke-miterlimit:4;stroke-dasharray:none;stroke-dashoffset:1.79999995;stroke-opacity:1;paint-order:normal" />
      </g>
      <path
         style="fill:#3366cc;fill-rule:evenodd;stroke:none;stroke-width:0.9850955px;stroke-linecap:butt;stroke-linejoin:miter;stroke-opacity:1"
         d="m 6.6109184,1091.2166 c 0.4895573,1.495 1.0030325,2.9265 1.5747764,4.2403 0.548707,1.2609 1.6858241,3.6672 3.7132712,6.5707 -2.188675,-3.4397 -3.9054229,-7.0987 -5.2880476,-10.811 z M 9.9039808,1067.78 c 0.07441,-0.2732 -1.4490782,4.9651 -1.235016,11.4422 0.2450195,7.7733 3.1381912,19.6395 12.8361072,28.9479 7.263337,6.9942 17.997722,11.7962 29.433715,11.5522 10.906904,-0.2139 21.602672,-5.0706 28.836983,-12.8434 5.018189,-5.377 8.276554,-11.8967 9.769119,-18.3717 1.761095,-7.6225 1.067678,-14.9273 -0.731607,-20.7976 -3.089629,-10.0983 -9.335261,-16.0527 -11.045242,-17.6353 -0.373188,-0.3457 -0.657352,-0.5943 -0.750762,-0.6747 0.06118,0.058 0.31789,0.286 0.741624,0.6846 1.649229,1.5498 7.913339,7.5267 10.997321,17.6428 1.790095,5.8612 2.478341,13.1545 0.716893,20.7637 -1.492252,6.4614 -4.746035,12.9684 -9.755196,18.3343 -7.219201,7.7552 -17.895213,12.6043 -28.780748,12.8199 -11.412538,0.2463 -22.13164,-4.543 -29.386965,-11.5218 -9.687057,-9.287 -12.5889242,-21.1351 -12.8454684,-28.9021 -0.2199447,-6.3607 1.2709167,-11.7578 1.1992422,-11.441 z m 0.4949442,-0.7634 c 0.08824,-0.3001 -1.6706782,5.2853 -1.4413953,12.196 0.2475238,7.8619 3.2023803,19.5889 12.7478133,28.7489 7.229346,6.9625 17.902254,11.7146 29.227408,11.4716 10.845741,-0.2119 21.466795,-5.0518 28.631288,-12.7515 4.989905,-5.3464 8.220322,-11.825 9.698693,-18.2394 1.755374,-7.5969 1.049381,-14.8546 -0.726535,-20.6478 -3.314044,-10.8322 -10.442765,-17.0234 -10.968232,-17.5053 -0.04543,-0.042 -0.08227,-0.075 -0.108827,-0.099 0.01851,0.018 0.05324,0.052 0.106133,0.1019 0.353504,0.3368 7.596054,6.6315 10.914704,17.5196 1.766553,5.7841 2.467227,13.0304 0.711342,20.6141 -1.47817,6.4009 -4.704109,12.8667 -9.68505,18.202 -7.1495,7.6822 -17.75084,12.5143 -28.575135,12.7278 -11.301695,0.2452 -21.959182,-4.4943 -29.180319,-11.4413 -9.534462,-9.1388 -12.4974856,-20.8477 -12.7562334,-28.7029 -0.2354089,-6.7929 1.4888974,-12.5368 1.4043454,-12.1947 z m 3.584694,28.4827 c 0.649213,1.3807 -0.171025,4e-4 -1.371767,-3.077 -1.254259,-3.2146 -2.575392,-7.7917 -2.7810997,-13.2389 -0.2952939,-7.3873 1.5395477,-13.8679 3.6543597,-18.6519 0.774307,-1.7516 4.539737,-8.6777 1.278092,-2.898 1.107993,-1.9053 -0.222043,0.1652 -1.891639,4.4101 -1.795427,4.5647 -3.2475247,10.4853 -2.9713246,17.1375 5e-7,0 1e-6,0 1.4e-6,0 0.2190572,5.5783 1.6014222,10.2487 2.8942102,13.5171 1.230897,3.1118 2.00831,4.447 1.189167,2.8011 z m 65.847674,-47.9984 c 2.210365,2.0353 6.234474,2.9243 8.571916,2.1144 1.983017,-0.687 3.737439,-3.9161 -2.384893,-8.9566 -9.055218,-7.7841 -20.721913,-12.2427 -32.50138,-12.3509 -2e-6,0 -4e-6,0 -6e-6,0 -14.66114,-0.098 -28.893357,6.5514 -38.103719,17.4969 -7.8579506,9.3632 -11.8944618,21.6135 -11.1755582,33.5653 0.2097816,3.445 0.815597,6.8474 1.7793342,10.1342 -0.9000396,-3.3036 -1.4385337,-6.7089 -1.581862,-10.1408 5e-7,0 1e-6,0 1.4e-6,0 -0.489467,-11.9067 3.7625232,-23.9359 11.6389546,-32.9729 2e-6,0 2e-6,0 3e-6,0 8.840478,-10.1254 22.097427,-16.2313 35.621283,-16.4093 -13.523469,0.2598 -26.707809,6.4464 -35.437617,16.5721 -7.7794199,9.0369 -11.9184184,21.0142 -11.3584513,32.7946 1e-6,0 1.9e-6,0 2.8e-6,0 0.5651161,11.7808 5.8425395,23.1992 14.3680855,31.1524 8.5272,7.9514 20.215623,12.3307 31.727699,11.9198 11.511533,-0.4101 22.741532,-5.6232 30.369098,-14.0608 1e-6,0 5e-6,0 9e-6,0 4.958503,-5.4818 8.427695,-12.2713 9.965971,-19.4406 0,-10e-5 0,-10e-5 0,-10e-5 1.539457,-7.169 1.150355,-14.7263 -1.085702,-21.6473 -3e-6,0 -4e-6,0 -4e-6,0 -2.234504,-6.9216 -6.3204,-13.2229 -11.674752,-18.0576 -5.176672,-4.677 -11.556014,-7.9983 -18.298713,-9.5646 4.094307,0.9207 8.064094,2.4884 11.720467,4.618 -3.900285,-2.1206 -8.109379,-3.6023 -12.400347,-4.3649 5.593864,1.1527 10.981213,3.5275 15.669195,6.9065 -4.788014,-3.3038 -10.243223,-5.5607 -15.848861,-6.5772 0,0 2.183077,0.3421 5.700003,1.6507 3.514568,1.3077 8.334824,3.6654 12.978048,7.847 4.816661,4.3342 9.116067,10.3833 11.487422,17.7465 0,0 10e-7,0 2e-6,0 2.232857,6.9248 2.534132,14.3667 1.018853,21.2737 -10e-7,0 -2e-6,0 -3e-6,0 -1.771455,8.0863 -5.784098,14.5303 -9.919541,18.9687 -3.816504,4.1023 -7.691641,6.4162 -9.379981,7.2762 -0.308381,0.1571 4.186457,-2.0444 9.154767,-7.4861 4.121087,-4.5054 8.043401,-10.9031 9.797915,-18.8387 0,0 10e-7,0 2e-6,0 1.598281,-7.2165 1.134796,-14.5952 -0.926973,-21.1157 -3.047123,-9.6502 -8.887971,-15.5173 -11.323851,-17.7265 -1.565465,-1.421 -0.533257,-0.4223 -1.124442,-0.967 0.232164,0.2139 0.630276,0.5779 1.082851,1.0117 2.20021,2.107 8.06151,8.0484 11.02879,17.7849 1.788319,5.8581 2.505124,13.196 0.732292,20.8901 -1.477789,6.4273 -4.709601,13.0012 -9.796929,18.4669 -7.04342,7.5866 -17.683535,12.7162 -28.97664,12.9597 -10.858536,0.2513 -21.833255,-4.072 -29.659148,-11.5742 -8.223227,-7.8607 -12.6547362,-18.8071 -13.0076973,-29.1641 -0.4351975,-12.2985 4.6362383,-23.089 10.8701103,-30.1206 11.109884,-12.5669 25.931474,-14.0549 25.689632,-14.0278 0.416443,-0.047 -3.507825,0.4186 -8.870282,2.5687 -5.689922,2.2813 -11.711132,6.047 -16.609952,11.6447 -3.736706,4.2563 -6.073754,8.6918 -7.506881,12.2472 -1.388295,3.4441 -1.838755,5.6387 -1.716921,5.2421 0.791769,-2.5771 3.100841,-10.1468 9.488971,-17.2542 4.530979,-5.0593 10.413249,-9.0254 16.941388,-11.485 6.510527,-2.453 12.379837,-2.9403 16.716159,-2.7416 2.699508,0.1164 4.75814,0.5 5.38957,0.6382 0.873776,0.1913 -1.334262,-0.356 -5.394342,-0.4976 -4.403554,-0.1658 -10.318873,0.3493 -16.867161,2.8562 -6.567404,2.5143 -12.3012,6.4846 -16.652706,11.3476 -3.449537,3.8404 -5.607533,7.7247 -6.903762,10.544 -1.279352,2.7827 -1.726185,4.3645 -1.513019,3.8141 1.3603,-3.5124 3.890181,-8.9642 8.640631,-14.1597 8.249678,-9.06 20.864186,-14.4593 33.279916,-13.9276 6.302181,0.2497 11.588611,1.9844 15.249091,3.6042 3.644819,1.6129 5.630673,2.9964 5.630673,2.9964 -6.278109,-3.9016 -13.5693,-6.2199 -20.884852,-6.4506 -2e-6,0 -4e-6,0 -5e-6,0 -12.229786,-0.4266 -24.770667,4.9741 -32.860536,14.1448 -1e-6,0 -1e-6,0 -2e-6,0 -6.946769,7.8363 -10.8291708,18.519 -10.4583995,28.9612 0.1866105,5.615 1.6053555,11.2187 4.0491115,16.3193 -2.418816,-5.1126 -3.807752,-10.7181 -3.96625,-16.3221 -0.3189836,-10.4218 3.608644,-21.0459 10.552923,-28.8011 8.084999,-9.0765 20.571142,-14.3694 32.669003,-13.8851 2e-6,0 4e-6,0 5e-6,0 9.722062,0.353 19.379699,4.4412 26.591993,11.0099 z"
         id="path3370" />
    </g>
    <path
       d="m 236.01905,1054.4301 c 1.93903,-0.1184 2.45751,0.097 6.626,-0.6059 -2.23881,0.087 -4.46827,0.2104 -6.626,0.6059 z m -13.52477,-6.7896 c 1.11318,0.077 101.39247,0.2383 103.819,0.1474 -1.28165,-0.1166 -102.56062,-0.2123 -103.819,-0.1474 z m -0.51795,-0.483 c 1.11318,0.077 101.39247,0.2383 103.819,0.1474 -1.28165,-0.1166 -102.56062,-0.2123 -103.819,-0.1474 z m 17.91219,-1.6071 c 4.34372,0.077 -32.30036,0.339 -24.19149,0.6509 -5.00109,-0.3694 29.10181,-0.8593 24.19149,-0.6509 z m -70.9627,-0.7992 c -3.99642,-0.1032 -7.65201,16.5553 0,15.3827 l 66.10417,-5.5325 -46.87261,1.1705 149.77079,-6.5495 -7.4085,0.4722 7.7645,-1.1476 -10.18622,0.7241 10.24643,-1.3262 c 0,0 -50.761,2.7629 -57.51315,1.6299 -0.80829,-0.1356 46.92336,-1.1642 45.75943,-1.2678 -7.02176,-0.6248 -131.25335,0.4276 -134.31891,-0.052 -0.88605,-0.1387 30.74484,-0.465 29.61438,-0.5712 -4.53879,-0.4266 -35.28159,-0.5533 -37.97789,-0.9151 -2.58759,-0.3471 38.17966,0.5606 36.17078,0.3585 -9.95407,-1.0012 -46.47916,-1.4482 -46.47916,-1.4482 l 66.28866,-0.1286 z"
       style="fill:#6699ff;fill-rule:evenodd;stroke:none;stroke-width:1px;stroke-linecap:butt;stroke-linejoin:miter;stroke-opacity:1"
       id="path3368" />
  </g>
</svg>
